<svg xmlns="http://www.w3.org/2000/svg" viewBox="0 0 512 512" width="100%" height="100%">
  <!-- Силуэт хорька в минималистичном стиле -->
  <path d="M130 290 C130 290, 140 250, 170 230 C200 210, 240 210, 270 230 C300 250, 320 280, 330 310 C340 340, 340 370, 330 390 C320 410, 300 420, 270 420 C240 420, 210 410, 190 390 C170 370, 160 340, 160 310 C160 280, 170 260, 180 250" fill="#4a3f35" />
  
  <!-- Голова хорька -->
  <path d="M180 250 C180 250, 170 230, 170 210 C170 190, 180 170, 200 160 C220 150, 250 150, 270 160 C290 170, 300 190, 300 210 C300 230, 290 250, 280 260" fill="#4a3f35" />
  
  <!-- Светлая маска на мордочке -->
  <path d="M190 210 C190 210, 200 200, 220 195 C240 190, 260 190, 280 195 C300 200, 310 210, 310 220 C310 230, 300 240, 280 245 C260 250, 240 250, 220 245 C200 240, 190 230, 190 220" fill="#f8a488" />
  
  <!-- Глаза -->
  <ellipse cx="220" cy="210" rx="5" ry="7" fill="#000000" />
  <ellipse cx="260" cy="210" rx="5" ry="7" fill="#000000" />
  
  <!-- Нос -->
  <ellipse cx="240" cy="225" rx="6" ry="4" fill="#000000" />
  
  <!-- Уши -->
  <path d="M190 180 L180 160 L200 170 Z" fill="#4a3f35" />
  <path d="M290 180 L300 160 L280 170 Z" fill="#4a3f35" />
  
  <!-- Длинный хвост -->
  <path d="M330 350 C330 350, 350 360, 370 380 C390 400, 400 420, 390 440 C380 460, 360 470, 340 460" fill="#4a3f35" />
  
  <!-- Лапки -->
  <ellipse cx="180" cy="390" rx="15" ry="10" transform="rotate(20 180 390)" fill="#4a3f35" />
  <ellipse cx="300" cy="390" rx="15" ry="10" transform="rotate(-20 300 390)" fill="#4a3f35" />
  <ellipse cx="200" cy="330" rx="15" ry="10" transform="rotate(20 200 330)" fill="#4a3f35" />
  <ellipse cx="280" cy="330" rx="15" ry="10" transform="rotate(-20 280 330)" fill="#4a3f35" />
  
  <!-- Контур для лучшей различимости -->
  <path d="M130 290 C130 290, 140 250, 170 230 C200 210, 240 210, 270 230 C300 250, 320 280, 330 310 C340 340, 340 370, 330 390 C320 410, 300 420, 270 420 C240 420, 210 410, 190 390 C170 370, 160 340, 160 310 C160 280, 170 260, 180 250" fill="none" stroke="#000000" stroke-width="2" />
  <path d="M180 250 C180 250, 170 230, 170 210 C170 190, 180 170, 200 160 C220 150, 250 150, 270 160 C290 170, 300 190, 300 210 C300 230, 290 250, 280 260" fill="none" stroke="#000000" stroke-width="2" />
  <path d="M330 350 C330 350, 350 360, 370 380 C390 400, 400 420, 390 440 C380 460, 360 470, 340 460" fill="none" stroke="#000000" stroke-width="2" />
</svg>